<svg width="1440" height="5874" viewBox="0 0 1440 5874" fill="none" xmlns="http://www.w3.org/2000/svg">
<path d="M1721.61 -243.115C1588.18 391.335 797.456 1626.44 331.279 1913.21C-251.443 2271.69 -449.058 2481.44 -377.882 2882.64C-279.429 3437.59 915.752 3568.16 1103.91 3929.05C1363.78 4427.52 677.302 5923.63 -860.462 6443.59" stroke="#386C5F" stroke-width="16"/>
<path d="M1721.61 -243.115C1588.18 391.335 797.456 1626.44 331.279 1913.21C-251.443 2271.69 -449.058 2481.44 -377.882 2882.64C-279.429 3437.59 915.752 3568.16 1103.91 3929.05C1363.78 4427.52 677.302 5923.63 -860.462 6443.59" stroke="white" stroke-opacity="0.2" stroke-width="16"/>
<path d="M1878.87 -171.587C1701.52 452.005 826.612 1628.91 341.576 1882.46C-264.72 2199.39 -476.478 2394.84 -433.449 2800.03C-373.929 3360.5 775.003 3591.03 971.773 3947.31C1252.5 4455.6 745.628 6105.09 -794.476 6549.59" stroke="#386C5F" stroke-width="16"/>
<path d="M1558.83 -304.814C1469.97 337.399 767.322 1624.66 322.282 1943.26C-234.018 2341.51 -416.523 2564.54 -317.539 2959.8C-180.619 3506.53 1020.76 3553.39 1233.63 3900.28C1527.64 4379.4 604 5747.5 -913.833 6352.58" stroke="#386C5F" stroke-width="16"/>
<path d="M1558.83 -304.814C1469.97 337.399 767.322 1624.66 322.282 1943.26C-234.018 2341.51 -416.523 2564.54 -317.539 2959.8C-180.619 3506.53 1020.76 3553.39 1233.63 3900.28C1527.64 4379.4 604 5747.5 -913.833 6352.58" stroke="white" stroke-opacity="0.4" stroke-width="16"/>
<path d="M1797.01 -206.427C1641.52 422.977 808.195 1629.72 332.298 1900.05C-262.573 2237.96 -467.385 2440.68 -410.249 2844.12C-331.215 3402.18 858.683 3574.39 1034.13 3941.64C1276.46 4448.87 702.5 6061.5 -835.966 6488.09" stroke="#386C5F" stroke-width="16"/>
<path d="M1797.01 -206.427C1641.52 422.977 808.195 1629.72 332.298 1900.05C-262.573 2237.96 -467.385 2440.68 -410.249 2844.12C-331.215 3402.18 858.683 3574.39 1034.13 3941.64C1276.46 4448.87 702.5 6061.5 -835.966 6488.09" stroke="white" stroke-opacity="0.1" stroke-width="16"/>
<path d="M1642.84 -277.61C1531.62 361.112 784.465 1623.07 328.577 1925.95C-241.283 2304.55 -431.46 2521.07 -346.332 2919.54C-228.579 3470.72 970.427 3559.48 1171.06 3913.59C1448.17 4402.67 641 5822 -887.955 6400.09" stroke="#386C5F" stroke-width="16"/>
<path d="M1642.84 -277.61C1531.62 361.112 784.465 1623.07 328.577 1925.95C-241.283 2304.55 -431.46 2521.07 -346.332 2919.54C-228.579 3470.72 970.427 3559.48 1171.06 3913.59C1448.17 4402.67 641 5822 -887.955 6400.09" stroke="white" stroke-opacity="0.3" stroke-width="16"/>
</svg>
