<svg width="30" height="30" viewBox="0 0 30 30" fill="none" xmlns="http://www.w3.org/2000/svg">
<g id="mingcute:telegram-line" clip-path="url(#clip0_698_2329)">
<g id="Group">
<path id="Vector" fill-rule="evenodd" clip-rule="evenodd" d="M27.3 7.57052C27.3545 7.23967 27.3193 6.90025 27.1981 6.58762C27.0768 6.275 26.8739 6.0006 26.6106 5.79304C26.3472 5.58547 26.033 5.45233 25.7007 5.40748C25.3684 5.36262 25.0302 5.4077 24.7212 5.53802L3.34622 14.538C1.85622 15.1655 1.77997 17.3205 3.34622 17.9705C4.89712 18.6173 6.47062 19.2085 8.06372 19.743C9.52372 20.2255 11.1162 20.6718 12.3925 20.798C12.7412 21.2155 13.18 21.6168 13.6275 21.9855C14.3112 22.548 15.1337 23.1268 15.9837 23.6818C17.6862 24.7943 19.575 25.858 20.8475 26.5505C22.3687 27.3755 24.19 26.4255 24.4625 24.7668L27.3 7.57052ZM5.74247 16.2405L24.6475 8.28177L22 24.3318C20.7512 23.653 18.9525 22.6368 17.35 21.5893C16.6114 21.1151 15.8983 20.6023 15.2137 20.053C15.0307 19.9036 14.8531 19.7476 14.6812 19.5855L19.6325 14.6355C19.867 14.4011 19.9989 14.0832 19.999 13.7516C19.9991 13.42 19.8675 13.1019 19.6331 12.8674C19.3987 12.6328 19.0808 12.501 18.7492 12.5009C18.4176 12.5008 18.0995 12.6324 17.865 12.8668L12.4437 18.288C11.5262 18.1705 10.2487 17.8305 8.84622 17.368C7.80209 17.0202 6.7663 16.6442 5.74247 16.2405Z" fill="white"/>
</g>
</g>
<defs>
<clipPath id="clip0_698_2329">
<rect width="30" height="30" fill="white"/>
</clipPath>
</defs>
</svg>
